<?xml version="1.0" encoding="utf-8"?>
<!-- Generator: Adobe Illustrator 15.1.0, SVG Export Plug-In . SVG Version: 6.00 Build 0)  -->
<!DOCTYPE svg PUBLIC "-//W3C//DTD SVG 1.1//EN" "http://www.w3.org/Graphics/SVG/1.1/DTD/svg11.dtd">
<svg version="1.1" id="Layer_1" xmlns="http://www.w3.org/2000/svg" xmlns:xlink="http://www.w3.org/1999/xlink" x="0px" y="0px"
	 width="300px" height="300px" viewBox="0 0 300 300" enable-background="new 0 0 300 300" xml:space="preserve">
<g>
	<path fill="#F26522" d="M80.942,80.769C98.545,63.149,122.87,52.25,149.741,52.25c26.801,0,51.071,10.848,68.657,28.387
		l0.071-64.85C197.875,5.169,174.502-0.828,149.741-0.828c-24.771,0-48.27,6.754-68.874,17.379L80.942,80.769z"/>
	<path fill="#EEA616" d="M218.47,218.388c-17.601,17.622-41.914,28.519-68.787,28.519c-26.802,0-51.068-10.847-68.67-28.385
		l-0.071,64.849c20.606,10.618,43.971,16.617,68.741,16.617s48.144-5.999,68.74-16.619L218.47,218.388z"/>
	<path fill="#5B57A6" d="M81.073,218.473C63.471,200.854,52.58,176.52,52.58,149.621c0-26.826,10.839-51.115,28.362-68.734
		L16.15,80.819C5.543,101.441-0.447,124.826-0.447,149.621c0,24.793,5.99,48.189,16.606,68.808L81.073,218.473z"/>
	<path fill="#009384" d="M218.433,80.635c17.606,17.614,28.494,41.965,28.494,68.863c0,26.823-10.838,51.114-28.366,68.72
		l64.798,0.072c10.606-20.617,16.597-44.012,16.597-68.792c0-24.797-5.99-48.195-16.604-68.818L218.433,80.635z"/>
</g>
</svg>
